<svg width="740" height="740" viewBox="0 0 740 740" fill="none" xmlns="http://www.w3.org/2000/svg">
<g clip-path="url(#clip0_245_69)">
<path d="M370 739.5C574.069 739.5 739.5 574.069 739.5 370C739.5 165.931 574.069 0.5 370 0.5C165.931 0.5 0.5 165.931 0.5 370C0.5 574.069 165.931 739.5 370 739.5Z" fill="black"/>
<path d="M228.52 471.85C229.918 470.318 231.621 469.095 233.52 468.26C235.412 467.432 237.454 466.999 239.52 466.99L578.13 467.27C579.573 467.27 580.985 467.69 582.194 468.479C583.402 469.267 584.355 470.39 584.937 471.71C585.519 473.031 585.704 474.492 585.471 475.916C585.237 477.34 584.594 478.665 583.62 479.73L511.51 559.13C510.116 560.662 508.418 561.886 506.524 562.723C504.629 563.559 502.581 563.991 500.51 563.99L161.91 563.71C160.469 563.705 159.06 563.283 157.854 562.494C156.648 561.705 155.697 560.583 155.116 559.264C154.535 557.945 154.349 556.486 154.581 555.064C154.812 553.641 155.451 552.317 156.42 551.25L228.52 471.85ZM583.59 405.76C584.564 406.825 585.207 408.15 585.44 409.574C585.674 410.998 585.489 412.459 584.907 413.78C584.325 415.1 583.372 416.223 582.164 417.012C580.955 417.8 579.543 418.22 578.1 418.22L239.5 418.5C237.429 418.501 235.381 418.069 233.486 417.232C231.592 416.396 229.894 415.172 228.5 413.64L156.41 334.2C155.441 333.131 154.802 331.804 154.57 330.38C154.336 328.958 154.52 327.498 155.101 326.179C155.681 324.86 156.633 323.738 157.84 322.95C159.048 322.162 160.458 321.739 161.9 321.73L500.51 321.46C502.582 321.456 504.631 321.886 506.526 322.723C508.42 323.56 510.118 324.786 511.51 326.32L583.59 405.76ZM228.52 180.87C229.912 179.336 231.61 178.11 233.505 177.273C235.399 176.436 237.449 176.006 239.52 176.01L578.13 176.29C579.572 176.292 580.982 176.712 582.189 177.5C583.396 178.289 584.349 179.411 584.93 180.73C585.511 182.047 585.697 183.504 585.464 184.925C585.232 186.345 584.591 187.667 583.62 188.73L511.51 268.13C510.116 269.662 508.418 270.886 506.524 271.722C504.629 272.559 502.581 272.991 500.51 272.99L161.91 272.71C160.467 272.71 159.054 272.289 157.847 271.499C156.639 270.708 155.688 269.583 155.11 268.26C154.534 266.942 154.351 265.486 154.584 264.067C154.816 262.647 155.454 261.325 156.42 260.26L228.52 180.87Z" fill="url(#paint0_linear_245_69)"/>
</g>
<defs>
<linearGradient id="paint0_linear_245_69" x1="167.56" y1="572.44" x2="572.44" y2="167.56" gradientUnits="userSpaceOnUse">
<stop stop-color="#9945FF"/>
<stop offset="0.2" stop-color="#7962E7"/>
<stop offset="1" stop-color="#00D18C"/>
</linearGradient>
<clipPath id="clip0_245_69">
<rect width="740" height="740" fill="white"/>
</clipPath>
</defs>
</svg>
