<svg width="32" height="32" viewBox="0 0 32 32" fill="none" xmlns="http://www.w3.org/2000/svg">
<mask id="mask0_152_3364" style="mask-type:alpha" maskUnits="userSpaceOnUse" x="0" y="0" width="32" height="32">
<circle cx="16" cy="16" r="16" fill="#15F095"/>
</mask>
<g mask="url(#mask0_152_3364)">
<circle cx="16" cy="16" r="16" fill="#9945FF"/>
<g filter="url(#filter0_f_152_3364)">
<path d="M12.9817 2.51906C-3.285 -4.94761 6.20389 -16.592 12.9817 -21.4809C19.7594 -26.3698 41.3149 -24.3698 47.6483 -13.4809C53.9816 -2.59205 63.1149 19.6524 48.9816 21.5191C31.3149 23.8524 33.315 11.8524 12.9817 2.51906Z" fill="#EE7D56"/>
</g>
<g filter="url(#filter1_f_152_3364)">
<path d="M17.0075 13.9245C12.6897 -1.16363 -2.20095 20.1837 0.27608 28.4737C2.01408 34.2904 2.86676 34.0779 13.2295 37.0955C26.1829 40.8675 22.4048 32.7846 17.0075 13.9245Z" fill="#36E2ED"/>
</g>
<g filter="url(#filter2_f_152_3364)">
<path d="M27.0758 24.0121C24.121 13.4934 7.08814 26.1974 6.0881 33.1459C5.49229 37.2858 7.86097 37.0529 14.9525 39.1566C23.8168 41.7863 30.7692 37.1605 27.0758 24.0121Z" fill="#FFAD91"/>
</g>
</g>
<defs>
<filter id="filter0_f_152_3364" x="-10" y="-38" width="80.4474" height="73.8138" filterUnits="userSpaceOnUse" color-interpolation-filters="sRGB">
<feFlood flood-opacity="0" result="BackgroundImageFix"/>
<feBlend mode="normal" in="SourceGraphic" in2="BackgroundImageFix" result="shape"/>
<feGaussianBlur stdDeviation="7" result="effect1_foregroundBlur_152_3364"/>
</filter>
<filter id="filter1_f_152_3364" x="-5.33333" y="3.33334" width="32.6667" height="40" filterUnits="userSpaceOnUse" color-interpolation-filters="sRGB">
<feFlood flood-opacity="0" result="BackgroundImageFix"/>
<feBlend mode="normal" in="SourceGraphic" in2="BackgroundImageFix" result="shape"/>
<feGaussianBlur stdDeviation="2.66667" result="effect1_foregroundBlur_152_3364"/>
</filter>
<filter id="filter2_f_152_3364" x="-4.66667" y="9.33333" width="43.4215" height="41.1974" filterUnits="userSpaceOnUse" color-interpolation-filters="sRGB">
<feFlood flood-opacity="0" result="BackgroundImageFix"/>
<feBlend mode="normal" in="SourceGraphic" in2="BackgroundImageFix" result="shape"/>
<feGaussianBlur stdDeviation="5.33333" result="effect1_foregroundBlur_152_3364"/>
</filter>
</defs>
</svg>
