<svg width="32" height="32" viewBox="0 0 32 32" fill="none" xmlns="http://www.w3.org/2000/svg">
<mask id="mask0_152_3324" style="mask-type:alpha" maskUnits="userSpaceOnUse" x="0" y="0" width="32" height="32">
<circle cx="16" cy="16" r="16" fill="#15F095"/>
</mask>
<g mask="url(#mask0_152_3324)">
<circle cx="16" cy="16" r="16" fill="#F1CF8E"/>
<g filter="url(#filter0_f_152_3324)">
<path d="M22.6062 22.0075C37.6943 17.6898 16.347 2.79905 8.05698 5.27608C2.24033 7.01408 2.45283 7.86676 -0.564793 18.2295C-4.33682 31.1829 3.7461 27.4048 22.6062 22.0075Z" fill="white"/>
</g>
<g filter="url(#filter1_f_152_3324)">
<path d="M6.85188 27.0758C17.3706 24.121 4.66661 7.08814 -2.28192 6.0881C-6.42179 5.49229 -6.18887 7.86097 -8.29261 14.9525C-10.9223 23.8168 -6.29649 30.7692 6.85188 27.0758Z" fill="#AB66FF"/>
</g>
</g>
<defs>
<filter id="filter0_f_152_3324" x="-6.80263" y="-0.333333" width="40" height="32.6667" filterUnits="userSpaceOnUse" color-interpolation-filters="sRGB">
<feFlood flood-opacity="0" result="BackgroundImageFix"/>
<feBlend mode="normal" in="SourceGraphic" in2="BackgroundImageFix" result="shape"/>
<feGaussianBlur stdDeviation="2.66667" result="effect1_foregroundBlur_152_3324"/>
</filter>
<filter id="filter1_f_152_3324" x="-19.6667" y="-4.66667" width="41.1974" height="43.4214" filterUnits="userSpaceOnUse" color-interpolation-filters="sRGB">
<feFlood flood-opacity="0" result="BackgroundImageFix"/>
<feBlend mode="normal" in="SourceGraphic" in2="BackgroundImageFix" result="shape"/>
<feGaussianBlur stdDeviation="5.33333" result="effect1_foregroundBlur_152_3324"/>
</filter>
</defs>
</svg>
