<svg width="206" height="12" viewBox="0 0 206 12" fill="none" xmlns="http://www.w3.org/2000/svg">
<path fill-rule="evenodd" clip-rule="evenodd" d="M20.3379 5.00003C15.4774 5.00003 10.8605 -9.23661e-06 6 -9.02415e-06V-9.02415e-06C2.68629 -8.8793e-06 -4.07116e-07 2.68628 -2.62269e-07 5.99999C-1.17422e-07 9.3137 2.68629 12 6 12V12C10.8605 12 15.4773 7.00002 20.3378 7.00002L21.6452 7.00002C23.7223 7.00002 25.7766 7.57319 27.7907 8.08089C32.3563 9.23176 40.595 10 50 10C60.1409 10 68.9259 9.10682 73.2123 7.8039C74.5485 7.39775 75.9184 7.00002 77.3149 7.00002V7.00002C77.8637 7.00002 78.4098 7.06246 78.9503 7.15751C81.85 7.66739 86.6142 8.00002 92 8.00002C97.0252 8.00002 101.509 7.71043 104.443 7.25748C105.389 7.11129 106.343 7.00002 107.301 7.00002V7.00002C109.153 7.00002 110.988 7.40194 112.801 7.77995C116.353 8.52002 122.062 9.00002 128.5 9.00002C131.166 9.00002 133.707 8.9177 136.022 8.76869C143.295 8.30045 150.652 7.00001 157.94 7.00001V7.00001C161.047 7.00001 164.145 7.29848 167.241 7.55546C170.59 7.83348 174.856 8.00002 179.5 8.00002C181.807 8.00002 184.02 7.95894 186.074 7.88352C190.672 7.71469 195.399 12 200 12V12C203.314 12 206 9.3137 206 5.99999C206 2.68628 203.314 -9.06594e-06 200 -8.92109e-06V-8.92109e-06C195.399 -8.71997e-06 190.672 4.28535 186.074 4.11651C184.02 4.0411 181.807 4.00002 179.5 4.00002C174.856 4.00002 170.59 4.16656 167.241 4.44458C164.145 4.70156 161.047 5.00002 157.94 5.00002V5.00002C150.652 5.00002 143.295 3.69958 136.022 3.23134C133.707 3.08233 131.166 3.00002 128.5 3.00002C122.062 3.00002 116.353 3.48002 112.801 4.22009C110.988 4.5981 109.153 5.00002 107.301 5.00002V5.00002C106.343 5.00002 105.389 4.88875 104.443 4.74255C101.509 4.2896 97.0252 4.00002 92 4.00002C86.6142 4.00002 81.85 4.33265 78.9503 4.84253C78.4097 4.93758 77.8637 5.00003 77.3149 5.00003V5.00003C75.9184 5.00003 74.5485 4.6023 73.2123 4.19614C68.9259 2.89322 60.141 2.00002 50 2.00002C40.5949 2.00002 32.3562 2.76829 27.7907 3.91915C25.7766 4.42686 23.7223 5.00003 21.6452 5.00003L20.3379 5.00003Z" fill="url(#paint0_linear_175_3759)"/>
<defs>
<linearGradient id="paint0_linear_175_3759" x1="136" y1="6.00986" x2="0.000103011" y2="6.01489" gradientUnits="userSpaceOnUse">
<stop stop-color="#9945FF"/>
<stop offset="0.473958" stop-color="#4E3C95"/>
<stop offset="1" stop-color="#15F095"/>
</linearGradient>
</defs>
</svg>
